# xmcd
# 
# Track frame offsets:
#     150
#     16272
#     32441
#     51775
# 
# Disc length: 940
# 
# Revision: 0
# Processed by: cddbd v1.5.2PL0 Copyright (c) Steve Scherf et al.
# Submitted via: fre:ac v1.0.17
# 
DISCID=2303aa04
DTITLE=Inna - Club Rocker
DYEAR=2011
DGENRE=Dance
TTITLE0=Club Rocker Play&Win Radio Version (feat. Flo Rida)
TTITLE1=Club Rocker Play&Win Radio Version
TTITLE2=Club Rocker Play&Win Radio Extended
TTITLE3=Club Rocker Play&Win Remix
EXTD=
EXTT0=
EXTT1=
EXTT2=
EXTT3=
PLAYORDER=
